<?xml version="1.0" encoding="UTF-8"?>
<svg version="1.1" xmlns="http://www.w3.org/2000/svg" width="310" height="321">
<path d="M0 0 C102.3 0 204.6 0 310 0 C310 105.93 310 211.86 310 321 C207.7 321 105.4 321 0 321 C0 215.07 0 109.14 0 0 Z " fill="#F69433" transform="translate(0,0)"/>
<path d="M0 0 C102.3 0 204.6 0 310 0 C310 105.93 310 211.86 310 321 C207.7 321 105.4 321 0 321 C0 215.07 0 109.14 0 0 Z M52.3125 72.8125 C41.07170831 85.70029414 31.49159263 101.79855931 26 118 C25.66355469 118.98484375 25.32710937 119.9696875 24.98046875 120.984375 C13.70513298 156.96409814 17.75728948 195.65976134 35 229 C41.47122108 240.94046652 49.77833954 251.1035839 59 261 C59.63679688 261.6909375 60.27359375 262.381875 60.9296875 263.09375 C84.45083363 287.68847541 120.19188136 301.50508872 153.85229492 302.35571289 C192.05222522 302.63397887 226.28600377 287.82133308 254 262 C255.01900391 261.06220703 255.01900391 261.06220703 256.05859375 260.10546875 C273.26938256 243.65652573 285.22395039 220.99452661 291 198 C291.26554687 196.95199219 291.53109375 195.90398437 291.8046875 194.82421875 C300.41634651 159.2703694 293.29976213 122.5755043 274.87109375 91.33203125 C269.70707417 82.87081369 263.63365477 75.34759071 257 68 C256.33355469 67.26136719 255.66710937 66.52273437 254.98046875 65.76171875 C232.6505386 42.3035395 198.4340181 27.16807731 166.18237305 25.88818359 C120.91711108 25.00611884 83.51501247 39.80352628 52.3125 72.8125 Z " fill="#FEFEFE" transform="translate(0,0)"/>
<path d="M0 0 C1.16940908 3.50822723 0.76827332 4.57889184 -0.2578125 8.05859375 C-0.55115479 9.07405273 -0.84449707 10.08951172 -1.14672852 11.13574219 C-1.46955811 12.22532227 -1.7923877 13.31490234 -2.125 14.4375 C-2.78484523 16.72199515 -3.44237199 19.00716115 -4.09765625 21.29296875 C-4.4239502 22.43040527 -4.75024414 23.5678418 -5.08642578 24.73974609 C-6.34205859 29.22069761 -7.46662216 33.72778729 -8.5625 38.25 C-10.43741839 45.9405659 -12.55691643 53.53871174 -14.76757812 61.13891602 C-16.70485857 67.8465628 -18.45741284 74.58639359 -20.08789062 81.375 C-22.17716398 89.98853852 -24.62165839 98.43797019 -27 107 C-13.8 107 -0.6 107 13 107 C8.86548623 113.49709306 4.78202776 119.87983255 0.3125 126.125 C-0.73573163 127.60022166 -1.78390714 129.0754832 -2.83203125 130.55078125 C-3.35877441 131.29021973 -3.88551758 132.0296582 -4.42822266 132.79150391 C-6.91957236 136.29208629 -9.3975898 139.80204481 -11.875 143.3125 C-12.36589111 144.00770752 -12.85678223 144.70291504 -13.36254883 145.41918945 C-19.00405686 153.41383014 -24.6106185 161.43290799 -30.21777344 169.45166016 C-33.72052616 174.46011672 -37.22582799 179.46679049 -40.73193359 184.47290039 C-43.75250104 188.78635902 -46.76955016 193.10221927 -49.78125 197.421875 C-50.40386719 198.31390625 -51.02648437 199.2059375 -51.66796875 200.125 C-52.84878749 201.81691939 -54.028556 203.50957247 -55.20703125 205.203125 C-63.0890254 216.48999013 -63.0890254 216.48999013 -66 220 C-66.33 220 -66.66 220 -67 220 C-67.92536751 212.1251225 -64.96333277 207.67329022 -60.75 201.1875 C-60.11247803 200.17486084 -59.47495605 199.16222168 -58.81811523 198.11889648 C-56.89416204 195.06914707 -54.94806729 192.0343822 -53 189 C-51.97303948 187.37379625 -50.94812185 185.7462996 -49.92578125 184.1171875 C-48.0000909 181.05090347 -46.06633011 177.98999988 -44.125 174.93359375 C-40.57987037 169.34591354 -37.06934905 163.73676239 -33.5625 158.125 C-32.93504883 157.12106201 -32.30759766 156.11712402 -31.66113281 155.08276367 C-26.8196299 147.32850186 -22.00369563 139.55856431 -17.21118164 131.77392578 C-16.71481201 130.96938965 -16.21844238 130.16485352 -15.70703125 129.3359375 C-15.2788208 128.64032715 -14.85061035 127.9447168 -14.40942383 127.22802734 C-12.65469002 124.4541315 -10.82070053 121.7310508 -9 119 C-19.89 118.67 -30.78 118.34 -42 118 C-39.44949796 106.77779102 -36.6034678 95.67225481 -33.58349609 84.56738281 C-31.27594265 76.07087837 -29.08057429 67.55490793 -27 59 C-27.53173828 59.87785156 -27.53173828 59.87785156 -28.07421875 60.7734375 C-32.4024668 67.75313048 -37.1153452 74.38438787 -41.94897461 81.01977539 C-47.00250906 87.96811426 -51.87746901 95.02756578 -56.71679688 102.12597656 C-57.99558134 103.99354687 -59.28458038 105.85356541 -60.578125 107.7109375 C-60.98708008 108.29834717 -61.39603516 108.88575684 -61.81738281 109.4909668 C-62.91906707 111.07139699 -64.02198478 112.65096717 -65.125 114.23046875 C-68.62436299 119.39931949 -70.61834544 122.61107709 -70.4296875 128.91015625 C-70.12917059 131.30513236 -70.12917059 131.30513236 -67.625 133.5 C-63.28485979 135.98008012 -59.80895452 136.30259393 -54.875 136.5625 C-53.74384766 136.62727539 -53.74384766 136.62727539 -52.58984375 136.69335938 C-50.72678112 136.7994832 -48.86341476 136.90025001 -47 137 C-47.66 139.64 -48.32 142.28 -49 145 C-51.83392926 145.08174796 -54.66544819 145.14084985 -57.5 145.1875 C-58.29148438 145.21263672 -59.08296875 145.23777344 -59.8984375 145.26367188 C-67.69086129 145.35948036 -74.24310964 143.59240778 -80 138 C-83.30432564 134.12596304 -83.52692993 130.50562163 -83.33203125 125.58984375 C-81.53603578 111.58107907 -68.1773151 97.74898562 -60.1953125 86.5078125 C-56.81724228 81.74923061 -53.46914496 76.96996189 -50.125 72.1875 C-49.54008789 71.35130127 -48.95517578 70.51510254 -48.35253906 69.65356445 C-47.16233221 67.95189474 -45.97222839 66.25015295 -44.78222656 64.54833984 C-41.85623267 60.3645694 -38.9280169 56.18235476 -36 52 C-34.83332241 50.33334098 -33.66665575 48.66667431 -32.5 47 C-25.5 37 -25.5 37 -23.74682617 34.49560547 C-22.59056384 32.84370979 -21.43447405 31.19169331 -20.27856445 29.53955078 C-17.20418081 25.14583648 -14.12605461 20.75480076 -11.04296875 16.3671875 C-10.07520508 14.98853516 -10.07520508 14.98853516 -9.08789062 13.58203125 C-7.8441912 11.81043064 -6.59944061 10.03956738 -5.35351562 8.26953125 C-4.51916992 7.08037109 -4.51916992 7.08037109 -3.66796875 5.8671875 C-3.17578857 5.16706543 -2.6836084 4.46694336 -2.17651367 3.74560547 C-0.94861481 2.00476652 -0.94861481 2.00476652 0 0 Z " fill="#FDFBF8" transform="translate(192,53)"/>
</svg>
